<?xml version="1.0" encoding="utf-8" ?>
<svg xmlns="http://www.w3.org/2000/svg" xmlns:xlink="http://www.w3.org/1999/xlink" width="1024" height="1024">
	<path fill="#04294D" d="M721.776 90.704C734.786 88.9466 749.587 91.136 762.284 94.1117C797.821 102.44 831.888 124.31 855.222 152.287C862.98 161.589 869.337 171.622 875.727 181.891C867.201 176.625 858.799 171.316 849.682 167.117C890.744 210.906 885.937 272.003 931.235 313.616C938.154 319.972 945.635 325.846 953.891 330.357C946.723 328.051 938.995 327.001 931.659 325.24C919.125 322.233 908.161 317.346 896.874 311.29C898.722 317.036 901.823 322.431 904.485 327.83Q908.853 336.591 912.42 345.708C923.612 374.095 930.546 403.734 929.334 434.385C928.971 443.586 927.296 452.621 926.839 461.775C920.853 440.236 911.46 421.78 898.523 403.638C900.005 412.74 900.322 422.4 900.652 431.628C902.014 469.654 896.2 505.9 881.392 541.079C881.525 524.909 879.043 508.792 872.949 493.783C868.141 508.189 864.663 522.671 858.744 536.749C833.387 597.055 790.76 645.937 737.587 683.453C729.65 689.054 721.757 694.752 713.418 699.747C700.686 730.229 686.17 759.336 665.07 784.947C672.336 799.135 681.067 812.778 689.757 826.14C710.502 858.04 741.804 898.667 784.086 897.045C796.524 896.568 808.555 891.471 821.114 894.229C835.707 897.433 847.036 909.022 854.762 921.262L854.434 920.936C854.25 920.756 854.062 920.58 853.881 920.398C853.555 920.072 853.244 919.732 852.912 919.412C840.584 907.552 822.793 904.669 806.466 905.164C812.4 909.022 815.477 913.232 819.003 919.239C811.955 913.532 802.211 910.442 793.272 909.757C794.669 911.286 795.856 912.524 796.611 914.474C796.514 915.734 796.572 916.128 795.607 917.06C792.715 919.856 786.754 920.443 782.977 920.137C774.172 919.423 766.955 913.701 758.367 912.323C750.503 911.061 741.737 912.16 733.757 912.053C725.65 911.944 717.501 911.032 709.419 910.39C719.393 919.159 727.633 928.194 734.853 939.402C723.706 928.385 709.712 918.854 693.897 916.567C689.182 915.885 684.223 916.041 679.462 915.976C685.814 921.307 690.954 926.11 695.047 933.406C683.298 927.257 683.532 924.519 668.794 923.478C669.207 924.753 669.626 926.175 669.742 927.516C669.865 928.933 669.366 929.803 668.48 930.867C667.984 931.161 667.765 931.317 667.265 931.529C659.35 934.89 637.888 928.653 628.164 928.085C617.381 927.455 606.105 928.768 595.34 929.525C580.528 930.565 565.554 931.42 550.707 931.54C542.39 931.608 533.721 931.707 525.541 930.009C523.924 929.673 522.725 929.199 521.775 927.774C521.667 926.825 521.64 926.279 522.012 925.369C523.511 921.696 527.674 920.383 531.038 919.119C530.625 919.036 530.213 918.948 529.797 918.881C510.081 915.722 496.183 920.332 480.244 931.971C495.02 910.01 505.255 901.098 532.72 907.133C540.539 908.851 548.068 910.682 556.132 909.885C560.703 909.434 565.445 908.353 569.314 905.778C572.217 903.846 575.088 900.81 575.728 897.265C576.305 894.071 575.188 891.027 573.476 888.372C569.709 882.529 563.763 877.264 558.936 872.279C544.145 857.004 528.14 842.826 513.66 827.29C507.705 820.9 502.854 813.82 498.134 806.506Q497.756 807.867 497.282 809.197C495.083 815.252 490.517 821.474 484.643 824.221L484.043 823.468L484.218 824.323L483.758 824.151C485.743 814.407 487.224 805.089 486.831 795.089C477.149 802.552 465.591 805.628 453.825 808.085C470.044 792.899 480.427 773.159 484.838 751.443C469.227 756.106 454.776 764.299 438.916 768.451C448.236 760.527 452.856 754.262 458.558 743.471C452.61 748.525 446.245 752.971 439.884 757.48C436.155 760.502 431.928 763.12 428.008 765.915Q414.155 775.887 400.168 785.671C369.16 807.746 338.805 830.648 303.934 846.51C294.847 850.644 285.452 854.519 275.971 857.648C269.588 859.754 262.995 861.17 256.69 863.513C286.563 840.185 317.129 817.212 342.819 789.135C346.684 784.912 351.077 780.629 354.42 776.002C353.976 775.747 344.928 783.583 343.502 784.737Q321.13 802.676 297.276 818.592C259.22 843.604 220.386 862.361 175.225 869.818C164.562 871.579 153.761 871.146 143.187 872.861C182.973 853.526 229.389 825.571 263.157 796.92C265.834 794.648 268.665 792.717 271.235 790.304C268.707 790.764 256.067 799.889 252.838 801.893C226.399 818.305 187.618 835.662 157.765 844.153C131.49 851.627 97.6232 859.723 72.4358 845.658C83.7933 831.501 98.8957 819.286 112.865 807.808C137.328 787.707 162.871 768.857 188.157 749.807Q210.571 732.615 233.391 715.966C243.687 708.404 253.871 700.741 264.773 694.057C252.794 692.937 240.417 692.36 228.387 692.077C240.707 681.956 253.926 672.97 266.307 662.905C286.34 646.619 305.14 629.465 323.893 611.749C338.756 597.708 353.569 583.59 367.244 568.375C380.101 554.071 390.668 538.251 402.142 522.862C415.715 504.658 430.806 486.985 447.741 471.829C441.233 475.698 434.341 478.915 427.7 482.553C413.655 490.246 399.229 498.813 386.395 508.402C392.039 501.152 399.718 494.483 406.191 487.888C437.869 455.618 471.644 426.102 509.6 401.379C524.408 391.734 540.533 384.306 555.116 374.345C568.86 364.957 580.344 352.949 593.765 343.233C609.46 331.873 632.937 319.047 644.247 303.655C656.135 287.476 658.958 266.576 655.832 247.117C653.374 231.822 646.465 219.051 633.763 209.928C616.563 197.575 573.841 194.341 552.349 189.594Q542.813 187.535 533.42 184.899C528.886 183.643 524.016 181.794 519.365 181.249C515.019 180.74 510.198 181.982 505.901 182.698C511.651 169.966 519.652 157.439 529.499 147.501C549.054 127.764 577.175 118.224 604.508 116.245C611.953 115.705 619.572 115.96 627.04 115.959C624.794 114.199 622.343 112.677 619.97 111.093C625.156 110.318 653.91 111.139 653.999 111.104L653.312 109.864L653.719 109.416C656.09 108.993 658.424 109.67 660.754 110.133C679.185 98.089 700.169 92.9817 721.776 90.704ZM603.308 724.496C586.069 737.967 583.886 746.644 571.877 763.726C563.059 776.269 546.723 797.15 535.721 807.764C550.019 833.367 569.638 867.119 590.754 887.371Q593.496 890.01 596.415 892.451Q599.334 894.893 602.416 897.125Q605.497 899.358 608.727 901.37Q611.956 903.383 615.318 905.166C622.267 896.519 630.572 890.758 641.87 889.576C661.231 887.55 677.945 900.481 698.271 891.305C701.446 889.872 704.886 887.877 707.055 885.113C708.497 883.276 709.269 881.376 709.781 879.118C709.661 877.487 709.598 875.729 708.916 874.218C706.229 868.257 700.313 862.76 695.864 858.039Q678.46 839.796 660.116 822.499C652.856 815.703 644.523 809.299 638.126 801.701C634.371 797.242 630.872 791.145 628.671 785.737Q625.17 792.85 621.031 799.612Q616.892 806.374 612.15 812.728C613.947 802.094 614.607 790.095 614.634 779.317C604.487 786.262 593.925 789.889 582.704 794.46C597.786 780.497 607.811 763.25 612.017 743.125C605.742 749.73 598.699 754.477 591.398 759.794C596.989 749.26 603.682 737.101 603.656 724.813L603.308 724.496ZM643.189 901.13Q641.914 901.295 640.65 901.534Q639.386 901.773 638.139 902.085Q636.891 902.397 635.663 902.78Q634.436 903.163 633.233 903.617Q632.029 904.07 630.854 904.593Q629.679 905.115 628.536 905.705Q627.393 906.294 626.286 906.949Q625.179 907.603 624.112 908.321C628.381 909.053 632.559 910.427 636.879 910.778C640.784 911.255 643.116 911.272 646.281 908.763C648.946 906.65 650.625 904.601 653.738 903.04C650.206 901.83 646.98 900.94 643.189 901.13Z"/>
	<path fill="#2682C5" d="M420.979 595.761C425.101 593.12 429.639 590.95 433.953 588.629C433.081 591.714 430.849 593.431 428.125 594.978C427.167 595.521 425.676 596.53 424.627 596.731C423.48 596.23 422.198 596.037 420.979 595.761Z"/>
	<path fill="#489ED1" d="M829.922 145.91C832.844 148.118 836.901 151.344 838.53 154.641Q832.51 153.034 826.526 151.295C825.593 151.098 825.012 150.408 824.302 149.797C823.879 148.532 823.578 148.26 823.919 146.927C825.833 146.172 827.515 147.383 829.554 146.825L829.922 145.91Z"/>
	<path fill="#2193D6" d="M653.216 113.799C661.446 115.642 670.471 117.751 677.751 122.098C677.867 122.685 678.014 123.303 678.078 123.9C678.207 125.124 678.423 125.415 677.692 126.409C673.845 125.544 671.741 120.389 667.48 120.117C665.525 120.108 664.551 118.895 662.63 119.642C661.101 119.7 660.304 119.088 658.949 118.412C656.943 116.953 655.004 115.53 653.216 113.799Z"/>
	<path fill="#2193D6" d="M631.475 114.345C638.735 115.101 645.157 117.584 651.985 120.057Q653.557 121.398 655.102 122.77L654.862 123.341C653.718 123.7 652.587 124.034 651.422 124.323L649.108 123.728C646.2 122.595 643.355 123.54 640.44 122.761L641.043 122.086L642.52 121.715L642.317 120.825C639.34 117.57 635.463 116.003 631.475 114.345Z"/>
	<path fill="#2193D6" d="M572.344 745.024C572.158 747.041 570.283 749.517 569.239 751.275C560.606 765.822 549.045 777.989 536.256 788.93C536.326 788.295 569.141 748.392 572.344 745.024Z"/>
	<path fill="#2682C5" d="M701.341 706.91C701.077 715.782 672.484 759.694 665.174 768.529C665.184 767.928 665.377 767.362 665.63 766.818C668.149 761.401 672.412 756.177 675.444 750.941C683.946 736.256 691.895 720.999 701.341 706.91Z"/>
	<path fill="#FEFEFE" d="M734.123 136.112C735.568 136.135 737.281 136.142 738.662 136.573C740.178 137.046 741.419 138.392 742.045 139.816C742.852 141.648 742.75 143.619 741.962 145.44C740.803 148.119 739.118 149.411 736.48 150.488C735.346 150.437 734.088 150.268 733.012 149.9C731.103 149.247 729.231 147.136 728.497 145.3C727.802 143.56 727.788 141.575 728.608 139.876C729.728 137.553 731.816 136.848 734.123 136.112Z"/>
	<path fill="#2682C5" d="M746.813 139.138C748.023 140.019 749.282 141.13 750.152 142.352Q750.452 142.77 750.707 143.216Q750.962 143.662 751.171 144.132Q751.379 144.602 751.538 145.091Q751.698 145.58 751.806 146.082Q751.915 146.585 751.972 147.096Q752.028 147.607 752.032 148.121Q752.036 148.635 751.988 149.147Q751.94 149.659 751.839 150.163C751.11 153.92 748.344 157.147 745.211 159.193C741.245 161.784 736.006 163.261 731.304 162.164C727.114 161.187 724.662 158.549 722.448 155.037C721.904 152.977 721.839 150.85 721.683 148.732L722.286 148.504L722.607 147.687L722.553 147.797C723.575 151.307 724.637 154.471 727.925 156.483C730.864 158.282 734.567 158.604 737.874 157.804C741.571 156.911 744.968 154.589 746.819 151.222C749.113 147.047 748.182 143.369 746.813 139.138Z"/>
	<path fill="#2169A7" d="M631.796 123.318C634.896 122.712 637.891 122.3 641.043 122.086L640.44 122.761C643.355 123.54 646.2 122.595 649.108 123.728L648.895 124.569C655.835 131.683 659.868 139.433 663.163 148.773C652.308 140.361 646.106 126.49 631.796 123.318Z"/>
	<path fill="#2169A7" d="M658.949 118.412C660.304 119.088 661.101 119.7 662.63 119.642C664.238 121.288 665.716 122.955 667.138 124.764C667.248 126.513 669.069 128.588 669.977 130.075Q671.518 132.569 672.808 135.201Q674.098 137.833 675.125 140.579Q676.152 143.325 676.906 146.157Q677.66 148.99 678.134 151.883C675.9 149.344 674.172 146.296 672.175 143.561C666.249 135.444 660.042 129.469 651.422 124.323C652.587 124.034 653.718 123.7 654.862 123.341L655.102 122.77Q653.557 121.398 651.985 120.057C653.181 120.006 654.226 119.965 655.39 119.653L654.529 118.524C655.881 117.943 657.509 118.246 658.949 118.412Z"/>
	<path fill="#1E5D98" d="M383.526 718.505C388.115 715.737 392.943 713.362 397.567 710.644C414.072 700.946 430.658 691.089 447.778 682.51C448.956 684.466 450.085 686.48 451.35 688.38C441.957 695.811 396.627 713.904 383.526 718.505Z"/>
	<path fill="#2169A7" d="M662.63 119.642C664.551 118.895 665.525 120.108 667.48 120.117C671.741 120.389 673.845 125.544 677.692 126.409C678.423 125.415 678.207 125.124 678.078 123.9C678.014 123.303 677.867 122.685 677.751 122.098C688.558 129.062 693.033 137.288 696.229 149.542C692.333 145.75 689.501 140.431 686.592 135.864C687.597 139.723 691.064 149.785 689.275 153.117C687.93 152.926 687.968 152.5 687.173 151.445C684.07 147.324 673.19 133.071 671.464 129.414C670.14 127.766 668.609 126.28 667.138 124.764C665.716 122.955 664.238 121.288 662.63 119.642Z"/>
	<path fill="#489ED1" d="M662.63 119.642C664.551 118.895 665.525 120.108 667.48 120.117C669.708 122.626 671.592 124.585 672.224 128.008C672 128.587 671.879 128.941 671.464 129.414C670.14 127.766 668.609 126.28 667.138 124.764C665.716 122.955 664.238 121.288 662.63 119.642Z"/>
	<path fill="#4CBDEF" d="M518.899 174.333L515.763 175.556L515.541 175.03C520.306 166.465 532.208 154.312 539.949 148.421C564.694 129.588 597.138 122.236 627.707 126.478C619.233 127.564 610.901 130.054 602.458 131.496C597.462 131.397 592.003 133.363 587.222 134.804C566.828 140.949 538.743 152.794 523.277 167.638C521.088 169.739 519.747 171.372 518.899 174.333Z"/>
	<path fill="#4CBDEF" d="M697.267 103.538C732.024 94.1049 768.738 100.401 799.802 118.201C818.896 129.143 842.885 147.9 857.085 164.585C851.028 160.785 845.29 157.097 838.53 154.641C836.901 151.344 832.844 148.118 829.922 145.91C798.939 119.636 768.378 105.441 727.407 103.07C722.46 102.784 717.36 102.85 712.413 103.12C708.164 103.353 702.307 104.573 698.196 103.745C697.885 103.682 697.576 103.607 697.267 103.538Z"/>
	<path fill="#1E5D98" d="M451.054 675.366C448.165 677.543 443.76 679.048 440.456 680.573C426.108 687.194 411.382 693.479 397.338 700.709C388.603 705.206 379.944 711.368 370.844 714.924L369.394 714.072L370.062 714.989L369.68 714.805L369.66 714.28C373.926 712.313 377.341 709.544 381.28 707.078C393.108 699.674 404.517 691.902 416.076 684.092C434.337 671.754 453.241 660.125 471.857 648.316C480.393 642.902 489.206 636.153 498.411 632.105C495.254 637.63 486.582 642.45 481.608 646.494C476.882 650.335 451.605 671.826 451.054 675.366Z"/>
	<path fill="#2169A7" d="M432.161 575.258L432.991 577.192C409.559 589.269 385.526 601.038 363.544 615.605C360.938 617.332 357.439 618.826 355.366 621.178L355.593 621.772C345.924 627.323 325.482 634.988 314.638 637.251C319.879 633.569 324.833 629.614 329.715 625.476C333.466 622.296 337.16 618.687 341.334 616.089C350.152 610.601 394.935 593.494 397.827 586.782C407.028 581.596 423.33 582.137 432.161 575.258Z"/>
	<path fill="#4CBDEF" d="M659.834 499.892C658.815 501.659 657.743 503.255 657.431 505.304C633.314 518.978 587.299 542.729 560.74 547.161C564.825 536.996 578.042 522.912 585.688 514.655C586.899 514.466 587.965 514.14 589.093 514.772C589.219 515.634 589.446 515.952 589.023 516.735C588.677 517.376 588.742 517.1 588.728 517.69C587.803 518.883 587.222 519.342 587.055 520.865C583.243 524.119 580.559 527.376 577.967 531.67C588.509 528.843 598.831 524.582 609.023 520.683C617.501 517.439 626.122 514.381 634.472 510.828C642.957 507.218 651.21 503.188 659.834 499.892Z"/>
	<path fill="#1E5D98" d="M263.796 680.4C270.434 675.467 276.993 670.51 283.255 665.101C288.891 660.234 294.866 653.924 301.189 650.014C306.096 646.981 312.585 645.535 318.07 643.669C325.872 641.015 333.699 638.273 341.251 634.961Q366.518 624.03 391.14 611.713C401.177 606.588 410.897 600.758 420.979 595.761C422.198 596.037 423.48 596.23 424.627 596.731C413.613 604.231 402.244 611.19 391.262 618.701Q376.623 628.79 362.879 640.066C361.118 641.488 356.354 644.625 355.659 646.691C355.607 646.845 355.602 647.012 355.574 647.172C351.846 650.102 346.567 652.374 342.314 654.552Q337.717 656.962 333.024 659.181Q328.332 661.4 323.552 663.423Q318.772 665.446 313.912 667.271Q309.053 669.096 304.123 670.719Q299.192 672.342 294.199 673.761Q289.206 675.179 284.159 676.391Q279.112 677.603 274.019 678.605Q268.926 679.608 263.796 680.4Z"/>
	<path fill="#1E5D98" d="M525.983 177.932C539.641 174.819 567.354 171.857 581.226 172.549C621.829 172.3 660.236 176.773 698.081 192.572C700.527 192.736 702.888 192.99 705.311 193.361C704.17 195.047 703.128 196.783 701.604 198.15C696.011 197.488 689.673 199.176 684.081 199.927C678.92 200.621 673.865 200.748 668.686 200.233C653.886 198.762 639.347 195.787 624.658 193.6Q575.174 186.689 525.983 177.932Z"/>
	<path fill="#489ED1" d="M581.226 172.549C621.829 172.3 660.236 176.773 698.081 192.572C692.907 195.953 684.228 192.121 678.737 190.697C650.779 183.446 624.124 177.819 595.371 174.672C588.46 173.916 581.499 173.876 574.572 173.24C576.817 173.15 579.003 172.853 581.226 172.549Z"/>
	<defs>
		<linearGradient id="gradient_0" gradientUnits="userSpaceOnUse" x1="581.52313" y1="128.25166" x2="653.29767" y2="235.70206">
			<stop offset="0" stop-color="#5582A6"/>
			<stop offset="1" stop-color="#44AEEC"/>
		</linearGradient>
	</defs>
	<path fill="url(#gradient_0)" d="M518.899 174.333C519.747 171.372 521.088 169.739 523.277 167.638C538.743 152.794 566.828 140.949 587.222 134.804C592.003 133.363 597.462 131.397 602.458 131.496C608.909 133.605 616.232 133.758 622.925 135.508C611.984 135.468 602.06 136.684 591.474 139.726C596.767 140.198 602.199 140.504 607.426 141.464C613.078 142.502 618.648 144.092 624.32 144.989C619.555 145.869 610.763 146.468 606.958 149.563L606.925 150.189C612.69 152.462 620.204 152.65 626.338 153.586C645.455 156.504 684.648 161.778 700.656 172.148C704.36 174.547 707.128 177.989 708.926 182.005C710.997 186.632 711.827 191.747 709.873 196.559C708.266 200.515 704.822 203.405 700.878 204.896C696.981 206.369 692.713 206.603 688.589 206.696C693.474 204.236 697.74 202.153 701.604 198.15C703.128 196.783 704.17 195.047 705.311 193.361C705.231 192.392 705.134 191.521 704.823 190.593C702.566 183.867 697.025 179.055 690.894 175.894C661.106 160.537 593.456 160.177 559.981 164.726C546.04 166.621 532.309 170.131 518.899 174.333Z"/>
	<path fill="#1E5D98" d="M543.947 546.796C542.151 549.465 540.114 552.264 540.389 555.676C540.489 556.919 541.059 557.956 542.1 558.672C550.549 564.486 597.548 546.952 607.253 542.275C612.955 539.527 630.613 528.877 635.009 527.859C635.301 527.791 635.597 527.736 635.891 527.675C631.342 531.789 625.902 535.171 620.812 538.579C600.116 552.435 560.672 574.73 535.486 573.048C533.784 572.935 532.742 572.603 531.359 571.617C529.414 568.522 530.335 563.582 531.126 560.181L531.268 559.595C511.534 570.347 496.383 576.933 473.279 577.078C469.132 577.104 464.016 577.538 460.022 576.388C458.978 576.087 459.1 576.043 458.481 575.289C458.058 571.23 459.986 566.911 461.295 563.13C451.986 568.152 442.791 573.158 432.991 577.192L432.161 575.258C423.33 582.137 407.028 581.596 397.827 586.782C391.853 588.539 386.176 591.28 380.5 593.815C377.076 596.342 353.099 605.104 346.902 607.911C364.354 591.101 382.106 574.239 395.62 553.992C404.389 554.094 411.699 552.119 419.991 549.55C418.908 552.435 417.768 556.264 418.768 559.308C419.221 560.684 420.09 561.69 421.429 562.263C431.241 566.462 462.93 555.863 473.041 552.096C473.188 554.366 473.198 556.875 473.78 559.075C474.248 560.845 475.155 562.261 476.835 563.103C488.112 568.75 531.534 551.972 543.947 546.796Z"/>
	<path fill="#2682C5" d="M408.196 561.944C407.79 563.825 407.037 566.577 407.44 568.443C409.651 578.674 427.749 571.856 432.161 575.258C423.33 582.137 407.028 581.596 397.827 586.782C391.853 588.539 386.176 591.28 380.5 593.815C383.388 586.809 402.014 568.201 408.196 561.944Z"/>
	<path fill="#1E5D98" d="M478.029 436.321C488.297 441.166 497.785 441.158 508.918 440.939C507.646 444.143 507.098 447.071 507.895 450.5C509.099 455.684 512.976 459.956 517.427 462.665C531.761 471.388 551.425 467.179 566.638 463.775C562.117 468.429 555.663 471.73 550.19 475.167Q537.362 483.166 524.621 491.305C506.524 502.99 489.307 516.003 470.325 526.291C464.475 529.461 455.668 534.517 448.86 534.518C447.326 534.518 446.318 533.948 445.293 532.847C444.681 532.189 444.219 531.436 443.645 530.759C443.577 530.679 443.484 530.625 443.403 530.557L444.922 527.966C441.702 529.093 438.466 531.612 435.555 533.425C424.298 540.438 415.891 544.381 402.435 544.604C406.176 535.198 412.933 526.903 419.153 519.02C433.461 497.956 452.242 479.362 471.408 462.762C476.595 458.269 481.687 453.562 487.468 449.838C476.312 453.001 465.021 457.292 454.532 462.244C449.378 464.678 444.532 467.667 439.312 469.978C451.879 458.312 464.901 447.344 478.029 436.321Z"/>
	<path fill="#2682C5" d="M419.153 519.02C430.395 515.578 442.182 503.89 451.465 496.714Q461.319 489.219 471.407 482.042C466.676 489.832 461.758 497.575 457.505 505.639C453.695 512.86 450.448 521.506 445.683 528.061L444.922 527.966C441.702 529.093 438.466 531.612 435.555 533.425C424.298 540.438 415.891 544.381 402.435 544.604C406.176 535.198 412.933 526.903 419.153 519.02Z"/>
	<path fill="#1E5D98" d="M381.733 683.831C392.498 678.114 403.624 673.197 414.676 668.069C421.672 664.824 429.105 660.65 436.557 658.702C433.708 661.664 429.797 663.905 426.404 666.211C415.819 673.405 404.957 679.607 394.153 686.397Q363.998 705.628 332.9 723.294Q301.802 740.96 269.843 757.015C236.332 774.186 202.218 790.538 166.931 803.774C150.899 809.788 134.468 814.689 118.112 819.725Q164.408 783.437 211.475 748.157C221.034 740.953 230.775 734.008 240.391 726.884C248.662 720.756 256.794 714.178 265.644 708.889C267.848 709.906 271.945 707.975 274.202 707.237C280.997 705.015 287.705 702.411 294.593 700.489C309.566 696.311 324.86 694.462 340.299 693.139C314.346 704.52 288.144 726.357 266.476 744.473C280.283 736.947 294.616 730.192 308.638 723.063Q334.516 709.747 360.137 695.944C365.72 692.959 377.926 687.792 381.733 683.831Z"/>
	<path fill="#4CBDEF" d="M651.022 358.948C673.327 360.501 699.631 370.554 714.547 387.711C720.914 395.034 725.593 403.001 731.188 410.829C733.597 415.088 728.313 434.841 726.858 440.069C723.885 450.746 720.524 461.125 715.828 471.177C691.807 522.596 643.754 567.945 598.435 600.865C582.244 612.626 565.263 623.349 548.307 633.957Q525.571 648.412 502.144 661.718C491.083 667.922 479.607 673.547 468.318 679.333C462.676 682.225 456.705 684.976 451.35 688.38C450.085 686.48 448.956 684.466 447.778 682.51C457.252 678.89 470.709 670.312 479.784 665.09Q518.132 643.195 555.37 619.462C555.539 619.401 555.712 619.35 555.877 619.279C562.431 616.475 573.285 607.276 579.129 602.736C588.76 595.253 598.761 587.775 607.819 579.611C615.15 573.004 621.588 565.276 628.566 558.285C649.258 537.555 665.82 520.981 683.372 497.173C692.146 485.27 700.048 473.297 705.64 459.534C713.567 440.02 711.221 426.144 703.319 407.278Q701.698 410.966 699.696 414.462Q697.694 417.958 695.334 421.223C692.959 424.503 689.743 427.961 688.104 431.65C682.118 438.405 673.217 444.81 665.094 448.847C656.842 455.103 637.746 462.595 627.075 460.923C625.322 460.648 624.076 460.302 622.842 458.964C622.573 457.812 622.326 457.003 623.032 455.936C625.454 452.277 630.817 449.091 633.893 445.714C622.986 450.979 610.864 456.879 598.884 459.177L594.471 460.076C592.733 460.56 588.929 461.13 587.19 460.602C586.186 460.298 585.457 459.651 585.148 458.635C583.345 452.7 593.497 443.089 596.514 438.357C596.604 438.217 596.69 438.075 596.777 437.933C592.499 441.66 588.036 445.032 583.192 448.001C566.912 457.982 548.12 461.86 529.476 457.413C532.32 455.569 541.687 452.731 545.887 450.666C572.373 437.642 599.748 417.831 618.124 394.58C621.444 390.38 625.466 385.689 627.213 380.579C627.771 377.991 628.492 375.511 629.282 372.988C604.837 377.371 576.482 397.865 554.015 408.845L554.184 408.47C579.938 389.338 618.004 358.751 651.022 358.948Z"/>
	<path fill="#2193D6" d="M598.884 459.177C600.749 455.148 616.058 449.736 621.028 446.541C641.329 433.49 661.624 407.191 672.26 385.764Q672.982 388.448 673.505 391.178C676.32 406.689 666.441 424.467 658.023 436.713C665.448 429.441 673.081 421.998 679.29 413.637C683.205 408.364 686.553 402.525 690.171 397.025L689.953 396.248C690.185 396.28 690.415 396.325 690.648 396.343C690.768 396.353 690.889 396.336 691.01 396.332C696.918 405.276 681.691 428.441 676.117 435.607C673.623 438.815 665.744 445.56 665.094 448.847C656.842 455.103 637.746 462.595 627.075 460.923C625.322 460.648 624.076 460.302 622.842 458.964C622.573 457.812 622.326 457.003 623.032 455.936C625.454 452.277 630.817 449.091 633.893 445.714C622.986 450.979 610.864 456.879 598.884 459.177Z"/>
	<path fill="#2193D6" d="M633.236 372.793L635.977 372.287C635.832 372.946 619.126 398.344 617.401 400.371C615.035 403.15 611.419 404.886 609.359 407.837C617.88 402.872 626.747 398.46 634.698 392.591C641.105 387.862 647.226 381.562 653.966 377.458C655.492 376.529 656.966 375.92 658.752 375.851L659.377 376.419C659.995 392.87 642.447 414.826 631.589 426.525Q620.467 438.4 608.18 449.066C604.33 452.437 597.189 456.163 594.471 460.076C592.733 460.56 588.929 461.13 587.19 460.602C586.186 460.298 585.457 459.651 585.148 458.635C583.345 452.7 593.497 443.089 596.514 438.357C596.604 438.217 596.69 438.075 596.777 437.933C592.499 441.66 588.036 445.032 583.192 448.001C566.912 457.982 548.12 461.86 529.476 457.413C532.32 455.569 541.687 452.731 545.887 450.666C572.373 437.642 599.748 417.831 618.124 394.58C621.444 390.38 625.466 385.689 627.213 380.579C627.771 377.991 628.492 375.511 629.282 372.988L633.236 372.793Z"/>
	<path fill="#489ED1" d="M629.282 372.988L633.236 372.793C632.457 375.276 629.333 379.023 627.213 380.579C627.771 377.991 628.492 375.511 629.282 372.988Z"/>
	<path fill="#1E5D98" d="M715.335 183.861C719.135 184.847 728.563 194.243 732.471 197.108C738.232 201.332 744.664 204.924 750.58 208.988C772.548 224.082 791.765 240.878 805.427 264.072C815.044 280.398 825.926 305.936 830.699 324.238C817.13 308.895 804.391 296.767 787.337 285.258C793.723 300.093 803.317 313.746 808.384 329.075C798.571 318.676 789.888 307.432 780.231 296.966C770.477 286.394 759.709 276.781 749.128 267.054C769.3 300.455 781.055 328.512 786.219 367.45C780.477 358.727 774.948 349.64 768.416 341.487C757.382 327.713 737.006 308.787 723.38 297.019C729.009 306.246 733.122 316.298 737.966 325.939Q746.734 343.198 757.356 359.381C747.435 350.121 735.764 342.851 725.605 333.849C717.755 326.893 711.976 318.774 704.803 311.317C704.622 324.512 709.05 337.263 712.093 349.979C702.782 340.321 695.322 329.422 688.522 317.908C690.207 331.563 692.945 345.048 698.46 357.728C700.517 362.458 703.921 366.929 705.451 371.82C701.342 369.936 697.33 366.431 693.49 363.97C688.25 360.611 681.855 358.011 675.915 356.18C653.063 349.137 633.777 354.056 611.312 358.948C624.609 359.366 637.678 356.868 651.022 358.948C618.004 358.751 579.938 389.338 554.184 408.47L554.015 408.845C576.482 397.865 604.837 377.371 629.282 372.988C628.492 375.511 627.771 377.991 627.213 380.579C625.466 385.689 621.444 390.38 618.124 394.58C599.748 417.831 572.373 437.642 545.887 450.666C541.687 452.731 532.32 455.569 529.476 457.413C527.524 457.362 525.084 456.525 523.402 455.539C519.978 453.532 518.802 450.578 517.957 446.896C527.056 444.132 535.278 441.445 543.685 436.982Q542.632 437.315 541.568 437.608C536.169 439.115 519.66 441.926 514.937 438.733C514.347 438.334 514.457 437.986 514.337 437.344C516.968 432.919 528.66 424.605 533.246 421.483C512.646 428.639 505.066 434.249 481.792 434.271C486.412 429.828 492.316 426.236 497.545 422.549C506.105 416.515 514.607 410.254 523.623 404.907C534.925 398.205 546.584 392.586 557.468 385.144C568.02 377.929 576.841 369.061 586.809 361.168C599.795 350.886 613.393 341.857 626.943 332.384C632.122 328.763 636.942 324.746 641.705 320.601C658.075 306.355 661.414 296.075 665.159 274.872C669.425 290.049 671.605 306.699 677.781 321.183C678.183 304.189 677.079 288.889 676.456 272.023C678.313 278.368 680.07 284.862 682.47 291.025C687.68 304.401 695.479 317.186 703.148 329.267C699.404 315.268 697.732 300.778 695.843 286.438C703.392 297.659 711.335 308.544 718.998 319.677C721.693 323.592 724.087 329.161 727.46 332.349C727.393 329.733 722.484 321.463 721.104 318.501C718.679 313.294 716.708 307.526 715.109 302.026C710.198 285.137 711.584 267.315 707.485 250.379C713.62 258.864 721.666 266.904 730.438 272.693C721.452 257.16 713.891 242.689 712.272 224.456C726.828 237.587 744.78 247.391 763.444 253.339C757.196 248.629 750.868 243.774 744.925 238.687C734.459 229.729 719.184 212.656 716.296 198.819C715.323 194.16 715.724 188.657 715.335 183.861Z"/>
	<path fill="#2193D6" d="M688.104 431.65C689.743 427.961 692.959 424.503 695.334 421.223Q697.694 417.958 699.696 414.462Q701.698 410.966 703.319 407.278C711.221 426.144 713.567 440.02 705.64 459.534C700.048 473.297 692.146 485.27 683.372 497.173C665.82 520.981 649.258 537.555 628.566 558.285C621.588 565.276 615.15 573.004 607.819 579.611C598.761 587.775 588.76 595.253 579.129 602.736C573.285 607.276 562.431 616.475 555.877 619.279C555.712 619.35 555.539 619.401 555.37 619.462C549.812 620.244 529.509 633.523 523.144 637.005L480.267 659.947C470.596 665.131 460.985 670.701 451.054 675.366C451.605 671.826 476.882 650.335 481.608 646.494C486.582 642.45 495.254 637.63 498.411 632.105C510.871 623.093 524.426 615.65 537.323 607.289Q572.72 584.116 607.566 560.123C613.356 556.147 626.8 548.481 630.633 543.963C609.556 555.237 589.289 567.764 568.704 579.883C543.575 594.679 518.265 609.127 493.312 624.227C474.354 635.699 456.11 648.226 436.557 658.702C429.105 660.65 421.672 664.824 414.676 668.069C403.624 673.197 392.498 678.114 381.733 683.831C377.926 687.792 365.72 692.959 360.137 695.944Q334.516 709.747 308.638 723.063C294.616 730.192 280.283 736.947 266.476 744.473C288.144 726.357 314.346 704.52 340.299 693.139C324.86 694.462 309.566 696.311 294.593 700.489C287.705 702.411 280.997 705.015 274.202 707.237C271.945 707.975 267.848 709.906 265.644 708.889C277.317 701.601 287.726 692.323 299.449 685.145C303.82 682.468 308.827 680.55 313.439 678.308C323.273 673.528 333.109 668.679 342.847 663.706C359.875 655.01 376.127 644.99 393.327 636.554C401.025 631.484 409.26 627.134 417.238 622.511C432.819 613.482 448.513 604.422 463.704 594.763C469.023 591.38 475.078 588.357 479.981 584.444L479.756 583.984C475.668 585.662 471.969 588.056 468.038 590.051L448.804 599.712L386.46 631.271C376.168 636.529 366.025 642.248 355.574 647.172C355.602 647.012 355.607 646.845 355.659 646.691C356.354 644.625 361.118 641.488 362.879 640.066Q376.623 628.79 391.262 618.701C402.244 611.19 413.613 604.231 424.627 596.731C425.676 596.53 427.167 595.521 428.125 594.978C430.849 593.431 433.081 591.714 433.953 588.629Q438.416 585.632 443 582.823C435.13 584.956 426.271 590.582 418.799 594.137Q396.55 604.868 373.757 614.387C367.774 616.891 361.749 619.733 355.593 621.772L355.366 621.178C357.439 618.826 360.938 617.332 363.544 615.605C385.526 601.038 409.559 589.269 432.991 577.192C442.791 573.158 451.986 568.152 461.295 563.13C459.986 566.911 458.058 571.23 458.481 575.289C459.1 576.043 458.978 576.087 460.022 576.388C464.016 577.538 469.132 577.104 473.279 577.078C496.383 576.933 511.534 570.347 531.268 559.595L531.126 560.181C530.335 563.582 529.414 568.522 531.359 571.617C532.742 572.603 533.784 572.935 535.486 573.048C560.672 574.73 600.116 552.435 620.812 538.579C625.902 535.171 631.342 531.789 635.891 527.675C646.803 520.504 671.805 502.269 679.02 492.262C672.003 497.031 665.047 501.523 657.431 505.304C657.743 503.255 658.815 501.659 659.834 499.892C651.21 503.188 642.957 507.218 634.472 510.828C626.122 514.381 617.501 517.439 609.023 520.683C598.831 524.582 588.509 528.843 577.967 531.67C580.559 527.376 583.243 524.119 587.055 520.865C587.222 519.342 587.803 518.883 588.728 517.69C588.742 517.1 588.677 517.376 589.023 516.735C589.446 515.952 589.219 515.634 589.093 514.772C587.965 514.14 586.899 514.466 585.688 514.655L590.24 509.852C598.397 500.441 607.848 492.175 616.153 482.918C615.311 482.806 597.739 498.205 594.17 500.428C594.026 500.517 593.881 500.603 593.736 500.69C586.092 507.227 578.576 514.136 570.45 520.071C549.341 535.486 514.095 554.316 487.627 553.441C490.347 549.005 493.826 545.469 497.522 541.841C507.869 530.107 520.138 519.299 531.548 508.574C540.461 500.195 548.971 491.437 558.386 483.615C548.987 488.924 540.432 495.95 531.97 502.612C522.603 509.986 513.716 517.951 504.26 525.215C481.354 542.81 458.826 549.502 430.768 553.591C432.977 544.596 438.158 538.014 443.403 530.557C443.484 530.625 443.577 530.679 443.645 530.759C444.219 531.436 444.681 532.189 445.293 532.847C446.318 533.948 447.326 534.518 448.86 534.518C455.668 534.517 464.475 529.461 470.325 526.291C489.307 516.003 506.524 502.99 524.621 491.305Q537.362 483.166 550.19 475.167C555.663 471.73 562.117 468.429 566.638 463.775C570.384 462.238 573.877 460.173 577.402 458.196C577.541 460.052 577.679 462.089 578.444 463.811C579.516 466.225 581.741 468.066 584.227 468.882C594.071 472.113 609.052 463.413 617.447 458.85C617.928 460.196 618.505 461.514 619.091 462.817C620.246 465.386 621.624 467.715 624.439 468.659C631.225 470.933 639.354 467.186 645.423 464.313C656.761 458.947 684.05 443.087 688.104 431.65Z"/>
	<path fill="#4CBDEF" d="M613.928 503.022C605.788 509.857 595.681 514.588 587.055 520.865C587.222 519.342 587.803 518.883 588.728 517.69C588.742 517.1 588.677 517.376 589.023 516.735C589.446 515.952 589.219 515.634 589.093 514.772C587.965 514.14 586.899 514.466 585.688 514.655L590.24 509.852C591.418 511.822 592.214 512.373 594.325 513.307C600.659 509.401 607.17 506.129 613.928 503.022Z"/>
	<path fill="#489ED1" d="M585.688 514.655L590.24 509.852C591.418 511.822 592.214 512.373 594.325 513.307C592.519 514.878 590.666 516.291 588.728 517.69C588.742 517.1 588.677 517.376 589.023 516.735C589.446 515.952 589.219 515.634 589.093 514.772C587.965 514.14 586.899 514.466 585.688 514.655Z"/>
	<path fill="#4CBDEF" d="M498.168 542.573C495.735 544.988 492.055 547.519 491.939 551.209C492.463 551.918 492.46 552.171 493.354 552.441C497.553 553.71 505.71 550.542 509.956 549.283Q514.255 548.014 518.489 546.545Q522.723 545.076 526.884 543.41Q531.046 541.745 535.124 539.887Q539.203 538.028 543.19 535.981Q547.177 533.934 551.064 531.703Q554.951 529.472 558.73 527.061Q562.508 524.65 566.17 522.065Q569.831 519.48 573.368 516.727C579.81 511.655 585.897 504.657 592.838 500.445L593.736 500.69C586.092 507.227 578.576 514.136 570.45 520.071C549.341 535.486 514.095 554.316 487.627 553.441C490.347 549.005 493.826 545.469 497.522 541.841C502.788 541.616 507.65 540.956 512.729 539.498C528.227 535.049 542.936 527.247 557.204 519.874C562.371 517.204 568.018 514.715 572.694 511.262C574.283 510.088 575.869 509.094 577.574 508.1L577.568 508.581C569.742 516.25 528.034 535.268 516.118 539.113C510.204 541.022 504.387 542.316 498.168 542.573Z"/>
	<path fill="#4CBDEF" d="M604.943 470.069L605.258 470.563C585.795 491.441 563.534 508.814 537.638 520.995L537.287 520.672C537.358 520.532 537.415 520.384 537.5 520.252C539.424 517.255 546.753 512.651 549.692 510.209C564.126 498.216 587.862 475.58 604.943 470.069Z"/>
	<path fill="#2169A7" d="M372.645 662.851C388.859 655.835 404.947 649.118 420.51 640.659C436.117 632.177 450.837 622.172 465.981 612.916C475.845 606.887 486.316 601.601 496.004 595.306L496.501 595.694C476.858 611.387 387.71 666.985 381.733 683.831C377.926 687.792 365.72 692.959 360.137 695.944Q334.516 709.747 308.638 723.063C294.616 730.192 280.283 736.947 266.476 744.473C288.144 726.357 314.346 704.52 340.299 693.139C324.86 694.462 309.566 696.311 294.593 700.489C287.705 702.411 280.997 705.015 274.202 707.237C271.945 707.975 267.848 709.906 265.644 708.889C277.317 701.601 287.726 692.323 299.449 685.145C303.82 682.468 308.827 680.55 313.439 678.308C323.273 673.528 333.109 668.679 342.847 663.706C359.875 655.01 376.127 644.99 393.327 636.554C390.702 641.12 386.156 645.368 382.703 649.438Q377.293 655.859 372.645 662.851Z"/>
	<defs>
		<linearGradient id="gradient_1" gradientUnits="userSpaceOnUse" x1="644.58301" y1="399.08969" x2="895.51495" y2="427.76108">
			<stop offset="0" stop-color="#1F72B7"/>
			<stop offset="1" stop-color="#2587C8"/>
		</linearGradient>
	</defs>
	<path fill="url(#gradient_1)" d="M697.267 103.538C697.576 103.607 697.885 103.682 698.196 103.745C702.307 104.573 708.164 103.353 712.413 103.12C717.36 102.85 722.46 102.784 727.407 103.07C768.378 105.441 798.939 119.636 829.922 145.91L829.554 146.825C827.515 147.383 825.833 146.172 823.919 146.927C823.578 148.26 823.879 148.532 824.302 149.797C825.012 150.408 825.593 151.098 826.526 151.295C855.901 179.64 866.512 203.31 879.575 240.988C884.755 255.929 889.771 270.607 897.317 284.582C902.723 294.595 910.384 302.399 916.965 311.493C906.812 306.475 885.855 296.42 878.274 289.324C882.385 298.796 886.287 308.349 890.454 317.799C904.962 350.709 920.295 384.9 920.496 421.551C913.811 408.895 905.846 396.162 896.732 385.108C892.485 379.956 887.028 375.368 883.262 369.891L882.361 369.392C882.913 374.063 884.475 378.618 885.209 383.28C886.545 391.772 886.917 400.505 887.053 409.094C888.135 416.748 889.62 424.398 890.216 432.107C892 455.188 888.234 476.851 885.161 499.597C881.637 487.575 876.847 479.353 868.417 470.099Q867.765 473.373 867.044 476.633Q866.324 479.893 865.536 483.138Q864.747 486.382 863.891 489.609Q863.035 492.836 862.111 496.044Q861.188 499.253 860.197 502.441Q859.207 505.63 858.15 508.797Q857.093 511.964 855.971 515.108Q854.848 518.252 853.659 521.372Q852.471 524.492 851.218 527.586Q849.964 530.681 848.647 533.749Q847.329 536.816 845.947 539.856Q844.566 542.895 843.121 545.905Q841.676 548.915 840.169 551.893Q838.661 554.872 837.092 557.819Q835.522 560.766 833.891 563.679Q832.261 566.593 830.569 569.471Q828.878 572.35 827.127 575.192Q825.376 578.035 823.566 580.84Q821.755 583.646 819.887 586.412Q818.018 589.179 816.093 591.906Q814.167 594.634 812.184 597.32Q810.202 600.006 808.163 602.651Q806.125 605.295 804.032 607.896Q801.939 610.497 799.792 613.054Q797.645 615.61 795.445 618.122Q793.245 620.633 790.993 623.098Q788.74 625.562 786.437 627.979Q784.134 630.396 781.781 632.765Q779.428 635.133 777.025 637.452Q774.623 639.77 772.173 642.038Q769.723 644.306 767.226 646.522Q764.729 648.739 762.186 650.902C748.68 662.501 733.964 672.803 719.148 682.639Q705.922 691.303 692.079 698.942Q678.236 706.581 663.854 713.151C657.959 715.896 651.941 719.034 645.735 720.99C652.575 716.753 659.919 713.203 666.991 709.361Q684.752 699.816 701.764 688.994C741.253 663.647 798.889 612.389 809.902 565.218C811.221 559.572 811.689 554.101 811.503 548.319C806.767 560.804 788.633 587.234 779.682 597.338C790.98 573.647 795.841 557.471 795.497 530.855C773.827 590.389 745.747 630.099 690.457 662.714C717.142 639.514 742.507 611.306 752.303 576.6C735.79 597.588 716.483 614.887 694.498 629.974C697.95 626.361 701.712 623.059 705.073 619.364C729.796 592.186 747.33 564.052 748.468 526.273L748.281 526.688C744.937 534.239 742.566 541.927 738.5 549.207C734.74 555.941 729.855 561.941 725.022 567.921C707.834 589.187 690.809 603.888 667.433 617.951C671.75 613.578 676.55 609.636 680.976 605.352C695.003 591.777 706.388 576.123 712.706 557.469C698.991 571.554 690.471 578.591 674.295 589.854C670.632 592.405 666.829 595.63 662.912 597.708C689.218 572.702 704.508 549.667 715.18 514.81C718.981 502.395 721.927 489.738 726.031 477.413C728.313 470.558 731.431 464.001 733.966 457.238C740.951 438.605 745.175 419.864 746.075 399.952C752.145 416.638 755.242 432.419 755.78 450.187C758.346 432.716 758.083 417.809 755.967 400.3C771.403 426.043 778.772 454.017 778.51 483.976C781.369 475.02 783.136 465.43 784.513 456.138C785.481 449.612 785.844 442.262 788.147 436.076C792.716 450.201 794.61 464.436 796.157 479.138C801.879 459.401 801.038 439.117 792.936 420.188C790.312 414.057 786.365 407.939 784.251 401.681C783.929 406.031 784.102 410.386 783.871 414.738C783.545 420.863 782.633 426.928 781.567 432.963C779.819 423.883 777.906 415.021 773.797 406.655C765.374 389.502 742.386 370.898 726.52 360.193Q722.676 357.55 718.604 355.272C728.494 369.64 733.75 380.175 733.593 397.9C733.56 401.604 733.581 405.61 732.865 409.244C732.733 409.914 732.524 410.44 732.266 411.069L731.531 410.928C727.142 397.873 714.694 381.818 705.451 371.82C703.921 366.929 700.517 362.458 698.46 357.728C692.945 345.048 690.207 331.563 688.522 317.908C695.322 329.422 702.782 340.321 712.093 349.979C709.05 337.263 704.622 324.512 704.803 311.317C711.976 318.774 717.755 326.893 725.605 333.849C735.764 342.851 747.435 350.121 757.356 359.381Q746.734 343.198 737.966 325.939C733.122 316.298 729.009 306.246 723.38 297.019C737.006 308.787 757.382 327.713 768.416 341.487C774.948 349.64 780.477 358.727 786.219 367.45C781.055 328.512 769.3 300.455 749.128 267.054C759.709 276.781 770.477 286.394 780.231 296.966C789.888 307.432 798.571 318.676 808.384 329.075C803.317 313.746 793.723 300.093 787.337 285.258C804.391 296.767 817.13 308.895 830.699 324.238C825.926 305.936 815.044 280.398 805.427 264.072C791.765 240.878 772.548 224.082 750.58 208.988C744.664 204.924 738.232 201.332 732.471 197.108C728.563 194.243 719.135 184.847 715.335 183.861C714.843 182.22 714.05 180.575 713.416 178.978C722.202 182.941 728.77 185.381 738.476 182.419C750.32 178.805 761.041 170.388 766.86 159.434C759.08 163.073 752.287 169.003 744.348 172.19L744.288 171.732C752.269 167.188 756.681 161.217 761.657 153.7C771.292 153.243 782.576 151.165 789.697 144.077C768.029 146.559 757.758 131.789 738.039 129.981C733.208 129.538 727.629 130.161 722.888 131.104C719.649 131.748 708.954 135.342 706.534 134.902C703.67 134.381 698.42 127.293 696.326 125.14C690.322 118.969 683.255 114.502 675.319 111.234C682.205 108.401 689.881 104.594 697.267 103.538Z"/>
	<path fill="#04294D" d="M841.27 458.915C832.424 486.403 819.197 506.819 797.759 526.257L798.027 525.617L797.477 525.359L797.606 526.269C822.127 493.161 830.931 459.398 836.792 419.363C839.619 430.041 845.563 448.55 841.27 458.915Z"/>
	<path fill="#4CBDEF" d="M887.033 282.798C883.05 273.991 880.503 264.464 877.384 255.317C870.059 233.834 862.528 211.846 851.658 191.852C842.443 174.904 829.214 160.744 818.223 145.046C820.204 146.686 822.262 148.232 824.302 149.797C825.012 150.408 825.593 151.098 826.526 151.295C855.901 179.64 866.512 203.31 879.575 240.988C884.755 255.929 889.771 270.607 897.317 284.582C902.723 294.595 910.384 302.399 916.965 311.493C906.812 306.475 885.855 296.42 878.274 289.324C882.385 298.796 886.287 308.349 890.454 317.799C904.962 350.709 920.295 384.9 920.496 421.551C913.811 408.895 905.846 396.162 896.732 385.108C892.485 379.956 887.028 375.368 883.262 369.891L882.361 369.392C882.913 374.063 884.475 378.618 885.209 383.28C886.545 391.772 886.917 400.505 887.053 409.094C884.44 405.082 886.865 399.777 885.94 395.482C885.46 393.254 884.023 391.517 883.917 389.152C884.343 388.379 884.744 387.603 885.128 386.809L884.612 386.305L883.217 386.407L882.996 385.797C883.314 384.956 883.635 384.11 883.876 383.244C884.693 380.309 882.767 372.735 881.354 370.267C880.852 369.391 880.584 369.013 880.637 367.953L881.465 367.44C882.833 367.959 882.794 368.111 883.545 369.394C885.065 370.725 886.63 371.879 887.519 373.734C890.104 374.067 893.522 371.804 895.475 370.325C897.789 368.572 900.775 365.65 901.231 362.624C901.639 359.919 899.703 355.015 901.994 353.229C902.31 352.983 902.837 352.748 903.207 352.57L904.315 353.957C904.433 351.211 901.799 346.65 900.694 344.071L899.82 346.657L899.159 346.863C898.924 346.673 898.694 346.477 898.454 346.294C896.933 345.132 893.481 344.077 891.568 344.376C890.96 344.471 890.868 344.571 890.406 344.843C890.633 346.02 890.97 346.381 891.677 347.316L891.294 348.078C890.104 347.884 889.509 347.675 888.856 346.578C887.1 343.63 885.938 339.135 882.364 337.797C881.544 337.49 881.372 337.775 880.634 338.097C880.391 338.8 880.264 339.382 880.137 340.118C879.987 340.994 879.779 341.464 879.338 342.217C879.389 346.777 882.619 350.792 882.426 355.32L881.816 355.45C877.004 351.156 862.479 327.989 858.293 327.84L858.004 328.733L859.427 328.917L859.644 329.628C857.344 331.634 853.017 335.013 849.844 334.901C849.174 334.877 849.236 334.816 848.674 334.473L848.215 335.409L849.461 336.525C849.256 337.172 849.028 337.657 848.714 338.252C848.785 341.014 849.535 343.245 851.123 345.504L851.669 345.723C854.08 346.713 857.65 348.294 859.334 350.286C858.708 351.814 857.275 353.171 857.093 354.729L857.569 355.177C858.714 354.328 859.491 353.442 860.367 352.342L860.801 352.523C860.845 354.194 860.603 355.414 861.529 356.831L862.181 356.393L862.258 354.047C863.152 354.044 862.745 353.915 863.594 354.7C866.634 357.513 868.592 362.415 870.466 366.087C876.704 378.308 884.469 393.431 885.271 407.407C885.288 407.695 885.267 407.983 885.265 408.27L884.698 408.397C884.006 420.412 883.391 431.512 878.275 442.623C876.381 430.882 871.658 422.278 864.441 412.948C861.417 424.556 858.881 436.275 855.19 447.702C851.19 460.09 845.682 472.31 840.37 484.196C841.025 475.959 841.491 467.652 842.464 459.448L841.27 458.915C845.563 448.55 839.619 430.041 836.792 419.363C835.877 414.782 835.821 409.939 835.452 405.284Q834.776 396.321 833.116 387.488C828.337 362.037 817.312 337.411 806.777 313.884C821.212 323.457 844.245 348.945 852.816 363.966C850.412 343.06 843.494 322.765 834.691 303.745C843.764 310.447 860.555 326.888 867.611 335.882C872.439 342.037 876.557 348.934 881.802 354.721L882.277 355.239C878.155 341.865 873.699 329.412 867.723 316.741C876.054 326.535 883.74 336.249 890.415 347.259C883.762 325.319 864.805 296.142 849.322 279.01C860.43 284.829 869.08 292.761 876.179 303.06C869.78 284.049 864.438 263.525 852.032 247.26C865.608 257.385 875.132 271.035 887.033 282.798Z"/>
	<path fill="#04294D" d="M862.541 353.962C873.489 372.61 880.542 386.726 884.698 408.397C884.006 420.412 883.391 431.512 878.275 442.623C876.381 430.882 871.658 422.278 864.441 412.948C861.417 424.556 858.881 436.275 855.19 447.702C851.19 460.09 845.682 472.31 840.37 484.196C841.025 475.959 841.491 467.652 842.464 459.448C850.016 430.993 855.341 405.004 852.95 375.307C856.825 381.325 860.993 387.174 864.701 393.295C867.407 397.761 869.707 402.437 872.33 406.947C869.522 389.205 867.442 371.291 862.541 353.962Z"/>
</svg>
